<svg xmlns="http://www.w3.org/2000/svg" version="1.1" viewBox="0 0 20 20" width="20px" height="20px">
	<style>.st0{fill:#06C}.st1{fill:#FFF}</style>
	<path class="st0" d="M 20 10 C 20 15.523438 15.523438 20 10 20 C 4.480469 20 0 15.523438 0 10 C 0 4.476562 4.480469 0 10 0 C 15.523438 0 20 4.476562 20 10 "/>
	<path class="st1" d="M 10.027344 10.859375 C 9.195312 10.859375 8.511719 10.578125 7.976562 10.011719 C 7.4375 9.453125 7.167969 8.753906 7.167969 7.921875 C 7.167969 7.089844 7.4375 6.398438 7.972656 5.847656 C 8.503906 5.296875 9.1875 5.019531 10.019531 5.019531 C 10.851562 5.019531 11.527344 5.300781 12.050781 5.867188 C 12.570312 6.433594 12.832031 7.128906 12.832031 7.960938 C 12.832031 8.789062 12.570312 9.480469 12.050781 10.03125 C 11.527344 10.578125 10.859375 10.859375 10.027344 10.859375 "/>
	<path class="st1" d="M 7.167969 14.945312 C 7.167969 14.113281 7.4375 13.421875 7.96875 12.871094 C 8.503906 12.316406 9.183594 12.042969 10.023438 12.042969 C 10.855469 12.042969 11.53125 12.320312 12.050781 12.890625 C 12.570312 13.457031 12.832031 14.152344 12.832031 14.984375 "/>
</svg>
